<mxfile host="app.diagrams.net" modified="2024-01-31T14:36:08.774Z" agent="Mozilla/5.0 (Macintosh; Intel Mac OS X 10_15_7) AppleWebKit/537.36 (KHTML, like Gecko) Chrome/121.0.0.0 Safari/537.36" version="23.0.2" etag="2--b5z0HGf1oDVe71eLK" type="github">
  <diagram name="Page-1" id="cYFtK5zlkcN52Osc78sK">
    <mxGraphModel>
      <root>
        <mxCell id="0" />
        <mxCell id="1" parent="0" />
      </root>
    </mxGraphModel>
  </diagram>
</mxfile>
